<svg id="Layer_1" data-name="Layer 1" xmlns="http://www.w3.org/2000/svg" viewBox="0 0 479 149"><defs><style>.cls-1{fill:#2563eb;}.cls-2{opacity:0.5;}.cls-3{fill:#73b3ff;}.cls-4{fill:#fff;}</style></defs><path class="cls-1" d="M136.11,74.54c0-17,12.83-27.75,27.08-27.75,14.7,0,22.27,9,24.37,17.62l-9.75,3.08c-1.27-5.1-5.4-10.73-14.62-10.73-7.95,0-16.35,5.7-16.35,17.78,0,11.32,7.95,17.55,16.5,17.55,9.07,0,13.5-5.93,14.92-10.88l9.68,2.93c-2,8.17-9.68,18.07-24.6,18.07S136.11,91.49,136.11,74.54Z"/><path class="cls-1" d="M227.24,47.91h10.95l-19.73,53.18H207.81L188.16,47.91h11.33l13.87,39.53Z"/><path class="cls-1" d="M308.91,101.09V63.81l-15.3,37.28H285l-15.3-37v37h-9.9V47.91h13.65l16,38.4L305,47.91h14.1v53.18Z"/><path class="cls-1" d="M337.26,79.86l9.08-1.35c2.1-.3,2.77-1.35,2.77-2.62,0-2.63-2-4.8-6.22-4.8s-6.75,2.77-7.05,6L327,75.21c.6-5.77,5.92-12.15,15.82-12.15,11.7,0,16.05,6.6,16.05,14V95.24a42.14,42.14,0,0,0,.45,5.85h-9.15a25.58,25.58,0,0,1-.37-4.43c-1.88,2.93-5.4,5.48-10.88,5.48-7.87,0-12.67-5.33-12.67-11.1C326.24,84.44,331.11,80.76,337.26,79.86Zm11.85,6.3V84.51l-8.32,1.28c-2.55.37-4.58,1.8-4.58,4.65,0,2.17,1.58,4.27,4.8,4.27C345.21,94.71,349.11,92.69,349.11,86.16Z"/><path class="cls-1" d="M388,79.71l15.08,21.38H390.88L381.13,87,377,91.34v9.75H367V46.79h10V77.91l12.75-13.72h13.05Z"/><path class="cls-1" d="M438.51,90.51c-1.88,6.38-7.73,11.7-16.8,11.7-10.12,0-19-7.27-19-19.72,0-11.78,8.7-19.43,18.15-19.43,11.4,0,18.22,7.28,18.22,19.13,0,1.42-.15,2.92-.15,3.07H412.49c.22,4.88,4.35,8.4,9.3,8.4,4.64,0,7.19-2.32,8.39-5.62Zm-9.3-12.07c-.15-3.68-2.55-7.28-8.25-7.28a8,8,0,0,0-8.25,7.28Z"/><path class="cls-1" d="M467.53,74.09a14.63,14.63,0,0,0-3-.3c-5.1,0-9.52,2.47-9.52,10.42v16.88H445V64.19h9.68v5.47c2.25-4.87,7.35-5.77,10.5-5.77a21.37,21.37,0,0,1,2.32.15Z"/><rect class="cls-1" x="24.26" y="27.94" width="69.24" height="69.24" rx="13.31"/><g class="cls-2"><rect class="cls-3" x="46.53" y="51.82" width="69.24" height="69.24" rx="13.31"/></g><circle class="cls-1" cx="60.17" cy="83.14" r="2.34"/><circle class="cls-1" cx="60.17" cy="72.96" r="2.34"/><circle class="cls-1" cx="60.17" cy="63.72" r="2.34"/><rect class="cls-1" x="68.06" y="62.65" width="15.81" height="2.13"/><rect class="cls-1" x="68.06" y="71.9" width="15.81" height="2.13"/><rect class="cls-1" x="68.06" y="82.07" width="15.81" height="2.13"/><circle class="cls-4" cx="36.87" cy="48.09" r="2.34"/><circle class="cls-4" cx="36.87" cy="38.85" r="2.34"/><rect class="cls-4" x="44.75" y="37.78" width="15.81" height="2.13"/><rect class="cls-4" x="44.75" y="47.03" width="15.81" height="2.13"/></svg>